<svg version="1.1" id="svg-draw" xmlns="http://www.w3.org/2000/svg" xmlns:xlink="http://www.w3.org/1999/xlink" x="0px" y="0px" width="100%" height="100%" xml:space="preserve" xmlns:svgjs="http://svgjs.com/svgjs" viewBox="166.25 100 335.5 250">
	<g id="svg-content">
		<g id="svg-logo" class="svg-element" transform="matrix(0.8473607091680935,0,0,0.8473607091680935,249.95313901375877,115.80620262322029)" style="cursor: pointer;">
<g>
	<path fill-rule="evenodd" clip-rule="evenodd" fill="#005A89" d="M10.1,100c0-49.7,40.3-89.9,89.9-89.9c49.7,0,89.9,40.3,89.9,89.9
		s-40.3,89.9-89.9,89.9C50.3,189.9,10.1,149.7,10.1,100L10.1,100L10.1,100z M5.4,100C5.4,47.7,47.8,5.4,100,5.4
		c52.2,0,94.6,42.4,94.6,94.6c0,52.3-42.4,94.6-94.6,94.6C47.8,194.6,5.4,152.3,5.4,100L5.4,100L5.4,100z"></path>
	<path fill-rule="evenodd" clip-rule="evenodd" fill="#005A89" d="M92,102c1.4-2.9,4.3-5,7.8-5c4.7,0,8.6,3.8,8.6,8.6
		c0,4.7-3.8,8.6-8.6,8.6c-0.5,0-0.9,0-1.4-0.1c-26.9-4-50.9-17.1-68.7-36.3c3.3-8.9,8.1-17,14.2-23.9C54.9,73.8,71.5,90.7,92,102
		L92,102L92,102z"></path>
	<path fill-rule="evenodd" clip-rule="evenodd" fill="#005A89" d="M135,171.5c-4.4-7.8-7.3-16.6-8.3-25.9
		c-1.8-13-7.2-24.8-15.2-34.5c0.8-1.7,1.2-3.5,1.2-5.5c0-7.2-5.8-13-13-13c-3.5,0-6.7,1.4-9,3.6c-12-7.1-22.4-16.2-31-26.8
		c10-12,25-19.6,41.8-19.6c30,0,54.4,24.4,54.4,54.4c0,6.4-1.1,12.5-3.1,18.2c-1.8,4.8-2.7,10-2.7,15.4c0,7.2,1.7,13.9,4.7,20
		C149,163.3,142.3,167.9,135,171.5L135,171.5L135,171.5z"></path>
	<path fill-rule="evenodd" clip-rule="evenodd" fill="#005A89" d="M63.5,138.9c-0.4,3.7-0.9,7.3-1.6,11c-1.2,6-2.8,11.8-4.7,17.4
		c0.9,0.6,1.8,1,2.7,1.6c16.6-12.8,29.8-30.1,37.6-50.5c-5.4-0.8-10.7-2-15.9-3.5c-3.9,9.5-10.2,17.7-18.1,24L63.5,138.9L63.5,138.9
		L63.5,138.9z"></path>
	<path fill-rule="evenodd" clip-rule="evenodd" fill="#005A89" d="M106,45.5c5,0.4,9.8,1.4,14.4,2.9c-0.1-8.9-1.8-17.8-4.8-26.6
		c-5-1-10.2-1.5-15.6-1.5c-5.3,0-10.6,0.6-15.6,1.6c3,2.3,6,4.9,8.8,7.7C98.1,34.6,102.4,39.8,106,45.5L106,45.5L106,45.5z"></path>
	<path fill-rule="evenodd" clip-rule="evenodd" fill="#005A89" d="M121,23.1c6,1.6,11.7,3.9,17,6.8c0.4,8.8-0.8,17.4-3,25.7
		c-3.2-2.2-6.6-4.1-10.2-5.6C124.8,41.1,123.7,32,121,23.1L121,23.1L121,23.1z"></path>
	<path fill-rule="evenodd" clip-rule="evenodd" fill="#005A89" d="M142.4,32.6c0.1,8.9-1.2,17.7-3.6,26c2.7,2.2,5.2,4.7,7.5,7.4
		c4.1-7.1,7.5-14.6,9.5-22.8C151.7,39.2,147.2,35.6,142.4,32.6L142.4,32.6L142.4,32.6z"></path>
	<path fill-rule="evenodd" clip-rule="evenodd" fill="#005A89" d="M149.2,69.7c2.1,2.9,3.9,5.9,5.5,9.2c5.6-5.5,10.4-11.7,14.3-18.7
		c-2.8-4.8-6.1-9.4-9.8-13.5C156.9,54.9,153.5,62.5,149.2,69.7L149.2,69.7L149.2,69.7z"></path>
	<path fill-rule="evenodd" clip-rule="evenodd" fill="#005A89" d="M177.4,81.6c-5.4,5.1-11.4,9.6-17.7,13.1
		c-0.6-3.9-1.7-7.8-3.1-11.4c5.7-5.4,10.7-11.6,14.9-18.5C174.1,70.1,176,75.7,177.4,81.6L177.4,81.6L177.4,81.6z"></path>
	<path fill-rule="evenodd" clip-rule="evenodd" fill="#005A89" d="M179.7,101.1c-6.2,3.4-12.7,6.1-19.5,7.9c0.1-1.6,0.2-3.1,0.2-4.7
		c0-1.7,0-3.3-0.2-4.9c6.5-3.4,12.7-7.6,18.3-12.6c0.7,4.3,1.1,8.8,1.1,13.3C179.6,100.4,179.7,100.7,179.7,101.1L179.7,101.1
		L179.7,101.1z"></path>
	<path fill-rule="evenodd" clip-rule="evenodd" fill="#005A89" d="M176.5,121.9c-5.8-2.2-11.2-5-16.5-8.5c6.7-1.6,13.2-4,19.4-7.2
		C179,111.6,177.9,116.9,176.5,121.9L176.5,121.9L176.5,121.9z"></path>
</g>
 </g>
		<g id="svg-name" class="svg-element" transform="matrix(1,0,0,1,236.4521484375,297.9420166015625)" style="cursor: pointer;"><g transform="matrix(1,0,0,1,0,0)" fill="#000000"><path d="M1.66 40.10L24.41 40.10L24.41 3.09L14.84 3.09L14.84 36.29L1.66 36.29L1.66 40.10ZM30.27 40.10L56.64 40.10L56.64 36.29L39.84 36.29L39.84 29.16L56.64 29.16L56.64 18.42L56.64 18.42Q56.69 15.29 55.49 14.10L55.49 14.10L55.49 14.10Q54.30 12.90 51.17 12.95L51.17 12.95L30.27 12.95L30.27 40.10M47.17 25.35L39.84 25.35L39.84 16.76L45.21 16.76L45.21 16.76Q47.36 16.56 47.17 18.71L47.17 18.71L47.17 25.35ZM74.51 16.76L83.89 16.76L83.89 12.95L64.94 12.95L64.94 40.10L74.51 40.10L74.51 16.76ZM92.19 40.10L117.68 40.10L117.68 18.42L117.68 18.42Q117.72 15.29 116.53 14.10L116.53 14.10L116.53 14.10Q115.33 12.90 112.21 12.95L112.21 12.95L92.19 12.95L92.19 40.10M108.20 36.29L101.66 36.29L101.66 16.76L106.25 16.76L106.25 16.76Q108.40 16.56 108.20 18.71L108.20 18.71L108.20 36.29ZM151.37 40.10L160.64 40.10L160.64 18.42L160.64 18.42Q160.69 15.29 159.50 14.10L159.50 14.10L159.50 14.10Q158.30 12.90 155.18 12.95L155.18 12.95L125.49 12.95L125.49 40.10L134.77 40.10L134.77 16.76L138.38 16.76L138.38 40.10L147.75 40.10L147.75 16.76L149.41 16.76L149.41 16.76Q151.56 16.56 151.37 18.71L151.37 18.71L151.37 40.10ZM168.46 40.10L194.82 40.10L194.82 36.29L178.03 36.29L178.03 29.16L194.82 29.16L194.82 18.42L194.82 18.42Q194.87 15.29 193.68 14.10L193.68 14.10L193.68 14.10Q192.48 12.90 189.36 12.95L189.36 12.95L168.46 12.95L168.46 40.10M185.35 25.35L178.03 25.35L178.03 16.76L183.40 16.76L183.40 16.76Q185.55 16.56 185.35 18.71L185.35 18.71L185.35 25.35Z"></path></g></g>
		<g id="svg-slogan" class="svg-element" transform="matrix(1,0,0,1,334.5,356.5)" style="cursor: pointer;"></g>
		<g id="svg-atext" class="svg-element" transform="matrix(1,0,0,1,334.5,249.5)" style="cursor: pointer;"></g>
	</g>
<defs id="SvgjsDefs1006"></defs><g id="svg-ghost" transform="matrix(1,0,0,1,0,0)"></g></svg>